<svg id="visual" viewBox="0 0 1920 450" width="1920" height="450" xmlns="http://www.w3.org/2000/svg" xmlns:xlink="http://www.w3.org/1999/xlink" version="1.1"><path d="M0 154L45.7 152.2C91.3 150.3 182.7 146.7 274.2 139.7C365.7 132.7 457.3 122.3 548.8 125C640.3 127.7 731.7 143.3 823 153.5C914.3 163.7 1005.7 168.3 1097 164.7C1188.3 161 1279.7 149 1371.2 146.8C1462.7 144.7 1554.3 152.3 1645.8 148.5C1737.3 144.7 1828.7 129.3 1874.3 121.7L1920 114L1920 0L1874.3 0C1828.7 0 1737.3 0 1645.8 0C1554.3 0 1462.7 0 1371.2 0C1279.7 0 1188.3 0 1097 0C1005.7 0 914.3 0 823 0C731.7 0 640.3 0 548.8 0C457.3 0 365.7 0 274.2 0C182.7 0 91.3 0 45.7 0L0 0Z" fill="#fa7268"></path><path d="M0 102L45.7 106.2C91.3 110.3 182.7 118.7 274.2 117C365.7 115.3 457.3 103.7 548.8 107.2C640.3 110.7 731.7 129.3 823 135.8C914.3 142.3 1005.7 136.7 1097 132.2C1188.3 127.7 1279.7 124.3 1371.2 123C1462.7 121.7 1554.3 122.3 1645.8 126.3C1737.3 130.3 1828.7 137.7 1874.3 141.3L1920 145L1920 0L1874.3 0C1828.7 0 1737.3 0 1645.8 0C1554.3 0 1462.7 0 1371.2 0C1279.7 0 1188.3 0 1097 0C1005.7 0 914.3 0 823 0C731.7 0 640.3 0 548.8 0C457.3 0 365.7 0 274.2 0C182.7 0 91.3 0 45.7 0L0 0Z" fill="#ef5f67"></path><path d="M0 101L45.7 104C91.3 107 182.7 113 274.2 112.5C365.7 112 457.3 105 548.8 100.3C640.3 95.7 731.7 93.3 823 92.3C914.3 91.3 1005.7 91.7 1097 89.2C1188.3 86.7 1279.7 81.3 1371.2 83.5C1462.7 85.7 1554.3 95.3 1645.8 94.2C1737.3 93 1828.7 81 1874.3 75L1920 69L1920 0L1874.3 0C1828.7 0 1737.3 0 1645.8 0C1554.3 0 1462.7 0 1371.2 0C1279.7 0 1188.3 0 1097 0C1005.7 0 914.3 0 823 0C731.7 0 640.3 0 548.8 0C457.3 0 365.7 0 274.2 0C182.7 0 91.3 0 45.7 0L0 0Z" fill="#e34c67"></path><path d="M0 59L45.7 57.2C91.3 55.3 182.7 51.7 274.2 52C365.7 52.3 457.3 56.7 548.8 60C640.3 63.3 731.7 65.7 823 65C914.3 64.3 1005.7 60.7 1097 59.5C1188.3 58.3 1279.7 59.7 1371.2 57C1462.7 54.3 1554.3 47.7 1645.8 51.5C1737.3 55.3 1828.7 69.7 1874.3 76.8L1920 84L1920 0L1874.3 0C1828.7 0 1737.3 0 1645.8 0C1554.3 0 1462.7 0 1371.2 0C1279.7 0 1188.3 0 1097 0C1005.7 0 914.3 0 823 0C731.7 0 640.3 0 548.8 0C457.3 0 365.7 0 274.2 0C182.7 0 91.3 0 45.7 0L0 0Z" fill="#d53867"></path><path d="M0 38L45.7 36C91.3 34 182.7 30 274.2 31.5C365.7 33 457.3 40 548.8 39.2C640.3 38.3 731.7 29.7 823 27.8C914.3 26 1005.7 31 1097 30.7C1188.3 30.3 1279.7 24.7 1371.2 27.2C1462.7 29.7 1554.3 40.3 1645.8 40.3C1737.3 40.3 1828.7 29.7 1874.3 24.3L1920 19L1920 0L1874.3 0C1828.7 0 1737.3 0 1645.8 0C1554.3 0 1462.7 0 1371.2 0C1279.7 0 1188.3 0 1097 0C1005.7 0 914.3 0 823 0C731.7 0 640.3 0 548.8 0C457.3 0 365.7 0 274.2 0C182.7 0 91.3 0 45.7 0L0 0Z" fill="#c62368"></path></svg>