<svg id="visual" viewBox="0 0 1920 1080" width="1920" height="1080" xmlns="http://www.w3.org/2000/svg" xmlns:xlink="http://www.w3.org/1999/xlink" version="1.1"><path d="M0 371L45.7 366.3C91.3 361.7 182.7 352.3 274.2 335.5C365.7 318.7 457.3 294.3 548.8 301.2C640.3 308 731.7 346 823 370.7C914.3 395.3 1005.7 406.7 1097 397.7C1188.3 388.7 1279.7 359.3 1371.2 353.8C1462.7 348.3 1554.3 366.7 1645.8 357.7C1737.3 348.7 1828.7 312.3 1874.3 294.2L1920 276L1920 0L1874.3 0C1828.7 0 1737.3 0 1645.8 0C1554.3 0 1462.7 0 1371.2 0C1279.7 0 1188.3 0 1097 0C1005.7 0 914.3 0 823 0C731.7 0 640.3 0 548.8 0C457.3 0 365.7 0 274.2 0C182.7 0 91.3 0 45.7 0L0 0Z" fill="#fa7268"></path><path d="M0 245L45.7 255.3C91.3 265.7 182.7 286.3 274.2 282.3C365.7 278.3 457.3 249.7 548.8 257.8C640.3 266 731.7 311 823 326.8C914.3 342.7 1005.7 329.3 1097 318.8C1188.3 308.3 1279.7 300.7 1371.2 297.3C1462.7 294 1554.3 295 1645.8 304.3C1737.3 313.7 1828.7 331.3 1874.3 340.2L1920 349L1920 0L1874.3 0C1828.7 0 1737.3 0 1645.8 0C1554.3 0 1462.7 0 1371.2 0C1279.7 0 1188.3 0 1097 0C1005.7 0 914.3 0 823 0C731.7 0 640.3 0 548.8 0C457.3 0 365.7 0 274.2 0C182.7 0 91.3 0 45.7 0L0 0Z" fill="#ef5f67"></path><path d="M0 243L45.7 250.3C91.3 257.7 182.7 272.3 274.2 271.2C365.7 270 457.3 253 548.8 241.7C640.3 230.3 731.7 224.7 823 222.3C914.3 220 1005.7 221 1097 215.2C1188.3 209.3 1279.7 196.7 1371.2 202C1462.7 207.3 1554.3 230.7 1645.8 228C1737.3 225.3 1828.7 196.7 1874.3 182.3L1920 168L1920 0L1874.3 0C1828.7 0 1737.3 0 1645.8 0C1554.3 0 1462.7 0 1371.2 0C1279.7 0 1188.3 0 1097 0C1005.7 0 914.3 0 823 0C731.7 0 640.3 0 548.8 0C457.3 0 365.7 0 274.2 0C182.7 0 91.3 0 45.7 0L0 0Z" fill="#e34c67"></path><path d="M0 144L45.7 139.2C91.3 134.3 182.7 124.7 274.2 125.5C365.7 126.3 457.3 137.7 548.8 146C640.3 154.3 731.7 159.7 823 158C914.3 156.3 1005.7 147.7 1097 144.7C1188.3 141.7 1279.7 144.3 1371.2 138C1462.7 131.7 1554.3 116.3 1645.8 125.7C1737.3 135 1828.7 169 1874.3 186L1920 203L1920 0L1874.3 0C1828.7 0 1737.3 0 1645.8 0C1554.3 0 1462.7 0 1371.2 0C1279.7 0 1188.3 0 1097 0C1005.7 0 914.3 0 823 0C731.7 0 640.3 0 548.8 0C457.3 0 365.7 0 274.2 0C182.7 0 91.3 0 45.7 0L0 0Z" fill="#d53867"></path><path d="M0 93L45.7 88C91.3 83 182.7 73 274.2 76.3C365.7 79.7 457.3 96.3 548.8 94.3C640.3 92.3 731.7 71.7 823 67.7C914.3 63.7 1005.7 76.3 1097 75.7C1188.3 75 1279.7 61 1371.2 66.8C1462.7 72.7 1554.3 98.3 1645.8 98.3C1737.3 98.3 1828.7 72.7 1874.3 59.8L1920 47L1920 0L1874.3 0C1828.7 0 1737.3 0 1645.8 0C1554.3 0 1462.7 0 1371.2 0C1279.7 0 1188.3 0 1097 0C1005.7 0 914.3 0 823 0C731.7 0 640.3 0 548.8 0C457.3 0 365.7 0 274.2 0C182.7 0 91.3 0 45.7 0L0 0Z" fill="#c62368"></path></svg>