<svg id="visual" viewBox="0 0 960 540" width="960" height="540" xmlns="http://www.w3.org/2000/svg" xmlns:xlink="http://www.w3.org/1999/xlink" version="1.1"><path d="M0 410L16 414.5C32 419 64 428 96 425.7C128 423.3 160 409.7 192 409.5C224 409.3 256 422.7 288 422C320 421.3 352 406.7 384 403.7C416 400.7 448 409.3 480 420.2C512 431 544 444 576 449C608 454 640 451 672 446.2C704 441.3 736 434.7 768 436.2C800 437.7 832 447.3 864 446.3C896 445.3 928 433.7 944 427.8L960 422L960 541L944 541C928 541 896 541 864 541C832 541 800 541 768 541C736 541 704 541 672 541C640 541 608 541 576 541C544 541 512 541 480 541C448 541 416 541 384 541C352 541 320 541 288 541C256 541 224 541 192 541C160 541 128 541 96 541C64 541 32 541 16 541L0 541Z" fill="#03254E" stroke-linecap="round" stroke-linejoin="miter"></path></svg>