<svg id="visual" viewBox="0 0 960 200" width="960" height="200" xmlns="http://www.w3.org/2000/svg" xmlns:xlink="http://www.w3.org/1999/xlink" version="1.1"><path d="M0 107L12.3 111.5C24.7 116 49.3 125 74 121.7C98.7 118.3 123.3 102.7 148 102.3C172.7 102 197.3 117 221.8 129.3C246.3 141.7 270.7 151.3 295.2 150.7C319.7 150 344.3 139 369 126.3C393.7 113.7 418.3 99.3 443 99.7C467.7 100 492.3 115 517 127.5C541.7 140 566.3 150 591 147.5C615.7 145 640.3 130 664.8 129.8C689.3 129.7 713.7 144.3 738.2 147.7C762.7 151 787.3 143 812 128.7C836.7 114.3 861.3 93.7 886 93C910.7 92.3 935.3 111.7 947.7 121.3L960 131L960 201L947.7 201C935.3 201 910.7 201 886 201C861.3 201 836.7 201 812 201C787.3 201 762.7 201 738.2 201C713.7 201 689.3 201 664.8 201C640.3 201 615.7 201 591 201C566.3 201 541.7 201 517 201C492.3 201 467.7 201 443 201C418.3 201 393.7 201 369 201C344.3 201 319.7 201 295.2 201C270.7 201 246.3 201 221.8 201C197.3 201 172.7 201 148 201C123.3 201 98.7 201 74 201C49.3 201 24.7 201 12.3 201L0 201Z" fill="#d64032" stroke-linecap="round" stroke-linejoin="miter"></path></svg>