<svg width="641" height="641" viewBox="0 0 641 641" fill="none" xmlns="http://www.w3.org/2000/svg">
<rect width="641" height="641" fill="url(#paint0_linear_5_134)"/>
<path fill-rule="evenodd" clip-rule="evenodd" d="M458.046 380.198H474.954C483.7 380.198 490.629 380.198 496.11 380.846C501.737 381.511 506.37 382.907 510.24 386.083C511.553 387.16 512.756 388.364 513.834 389.677C517.009 393.547 518.406 398.179 519.071 403.807C519.719 409.288 519.719 416.216 519.719 424.962V425.496C519.719 434.242 519.719 441.17 519.071 446.652C518.406 452.279 517.009 456.911 513.834 460.781C512.756 462.094 511.553 463.298 510.24 464.375C506.37 467.551 501.737 468.948 496.11 469.612C490.629 470.26 483.7 470.26 474.954 470.26H458.046C449.3 470.26 442.371 470.26 436.89 469.612C431.263 468.948 426.63 467.551 422.76 464.375C421.448 463.298 420.244 462.094 419.166 460.781C415.991 456.911 414.594 452.279 413.929 446.652C413.281 441.17 413.281 434.242 413.281 425.496V424.962C413.281 416.216 413.281 409.288 413.929 403.807C414.594 398.179 415.991 393.547 419.166 389.677C420.244 388.364 421.448 387.16 422.76 386.083C426.63 382.907 431.263 381.511 436.89 380.846C442.371 380.198 449.3 380.198 458.046 380.198ZM437.851 388.977C432.997 389.55 430.124 390.632 427.954 392.412C427.056 393.149 426.233 393.973 425.495 394.871C423.715 397.04 422.634 399.913 422.06 404.768C421.475 409.712 421.469 416.157 421.469 425.229C421.469 434.301 421.475 440.746 422.06 445.691C422.634 450.545 423.715 453.418 425.495 455.587C426.233 456.485 427.056 457.309 427.954 458.046C430.124 459.826 432.997 460.908 437.851 461.482C442.796 462.066 449.24 462.073 458.313 462.073H474.688C483.76 462.073 490.204 462.066 495.149 461.482C500.003 460.908 502.877 459.826 505.046 458.046C505.944 457.309 506.767 456.485 507.505 455.587C509.285 453.418 510.366 450.545 510.94 445.691C511.525 440.746 511.531 434.301 511.531 425.229C511.531 416.157 511.525 409.712 510.94 404.768C510.366 399.913 509.285 397.04 507.505 394.871C506.767 393.973 505.944 393.149 505.046 392.412C502.877 390.632 500.003 389.55 495.149 388.977C490.204 388.392 483.76 388.385 474.688 388.385H458.313C449.24 388.385 442.796 388.392 437.851 388.977Z" fill="#323232"/>
<path fill-rule="evenodd" clip-rule="evenodd" d="M466.5 415.677C459.717 415.677 454.219 421.176 454.219 427.958C454.219 434.741 459.717 440.24 466.5 440.24C473.283 440.24 478.781 434.741 478.781 427.958C478.781 421.176 473.283 415.677 466.5 415.677ZM446.031 427.958C446.031 416.654 455.195 407.49 466.5 407.49C477.805 407.49 486.969 416.654 486.969 427.958C486.969 439.263 477.805 448.427 466.5 448.427C455.195 448.427 446.031 439.263 446.031 427.958Z" fill="#323232"/>
<path d="M504.708 403.396C504.708 407.918 501.042 411.583 496.521 411.583C491.999 411.583 488.333 407.918 488.333 403.396C488.333 398.874 491.999 395.208 496.521 395.208C501.042 395.208 504.708 398.874 504.708 403.396Z" fill="#323232"/>
<path fill-rule="evenodd" clip-rule="evenodd" d="M189.91 177.021C190.499 177.021 191.096 177.021 191.701 177.021H288.3C288.905 177.021 289.502 177.021 290.091 177.021C305.842 177.017 315.879 177.015 324.383 179.414C345.723 185.432 362.402 202.111 368.42 223.451C370.819 231.955 370.816 241.991 370.814 257.744C370.812 258.331 370.812 258.928 370.812 259.533V295.173C370.814 319.831 370.814 339.36 368.758 354.644C366.644 370.374 362.188 383.106 352.147 393.147C342.106 403.187 329.375 407.643 313.645 409.758C298.36 411.813 278.83 411.813 254.173 411.813H225.827C201.17 411.813 181.641 411.813 166.356 409.758C150.626 407.643 137.894 403.187 127.854 393.147C117.813 383.106 113.357 370.374 111.243 354.644C109.188 339.36 109.188 319.831 109.188 295.173V259.533C109.188 258.928 109.188 258.331 109.188 257.744C109.184 241.991 109.182 231.955 111.581 223.451C117.599 202.111 134.278 185.432 155.618 179.414C164.122 177.015 174.158 177.017 189.91 177.021ZM191.701 197.146C173.548 197.146 166.548 197.241 161.081 198.783C146.48 202.901 135.068 214.313 130.95 228.914C129.408 234.381 129.313 241.381 129.313 259.533V294.417C129.313 320 129.334 338.175 131.188 351.963C133.003 365.461 136.406 373.238 142.084 378.916C147.762 384.594 155.539 387.998 169.038 389.812C182.826 391.666 201.001 391.688 226.583 391.688H253.417C279.001 391.688 297.175 391.666 310.963 389.812C324.462 387.998 332.238 384.594 337.916 378.916C343.594 373.238 346.998 365.461 348.813 351.963C350.666 338.175 350.687 320 350.687 294.417V259.533C350.687 241.381 350.592 234.381 349.051 228.914C344.933 214.313 333.521 202.901 318.919 198.783C313.452 197.241 306.453 197.146 288.3 197.146H191.701Z" fill="#323232"/>
<path fill-rule="evenodd" clip-rule="evenodd" d="M172.917 150.188C178.475 150.188 182.98 154.693 182.98 160.25V200.5C182.98 206.057 178.475 210.563 172.917 210.563C167.36 210.563 162.855 206.057 162.855 200.5V160.25C162.855 154.693 167.36 150.188 172.917 150.188Z" fill="#323232"/>
<path fill-rule="evenodd" clip-rule="evenodd" d="M307.083 150.188C312.64 150.188 317.146 154.693 317.146 160.25V200.5C317.146 206.057 312.64 210.563 307.083 210.563C301.526 210.563 297.021 206.057 297.021 200.5V160.25C297.021 154.693 301.526 150.188 307.083 150.188Z" fill="#323232"/>
<path fill-rule="evenodd" clip-rule="evenodd" d="M109.188 240.75C109.188 235.193 113.693 230.688 119.25 230.688H360.75C366.307 230.688 370.812 235.193 370.812 240.75C370.812 246.307 366.307 250.813 360.75 250.813H119.25C113.693 250.813 109.188 246.307 109.188 240.75Z" fill="#323232"/>
<path d="M172.917 294.417C172.917 287.007 178.924 281 186.334 281C193.744 281 199.751 287.007 199.751 294.417C199.751 301.827 193.744 307.833 186.334 307.833C178.924 307.833 172.917 301.827 172.917 294.417Z" fill="#323232"/>
<path d="M172.917 348.083C172.917 340.673 178.924 334.667 186.334 334.667C193.744 334.667 199.751 340.673 199.751 348.083C199.751 355.493 193.744 361.5 186.334 361.5C178.924 361.5 172.917 355.493 172.917 348.083Z" fill="#323232"/>
<path d="M226.583 294.417C226.583 287.007 232.591 281 240 281C247.41 281 253.417 287.007 253.417 294.417C253.417 301.827 247.41 307.833 240 307.833C232.591 307.833 226.583 301.827 226.583 294.417Z" fill="#323232"/>
<path d="M226.583 348.083C226.583 340.673 232.591 334.667 240 334.667C247.41 334.667 253.417 340.673 253.417 348.083C253.417 355.493 247.41 361.5 240 361.5C232.591 361.5 226.583 355.493 226.583 348.083Z" fill="#323232"/>
<path d="M280.25 294.417C280.25 287.007 286.258 281 293.667 281C301.077 281 307.083 287.007 307.083 294.417C307.083 301.827 301.077 307.833 293.667 307.833C286.258 307.833 280.25 301.827 280.25 294.417Z" fill="#323232"/>
<path d="M280.25 348.083C280.25 340.673 286.258 334.667 293.667 334.667C301.077 334.667 307.083 340.673 307.083 348.083C307.083 355.493 301.077 361.5 293.667 361.5C286.258 361.5 280.25 355.493 280.25 348.083Z" fill="#323232"/>
<defs>
<linearGradient id="paint0_linear_5_134" x1="4.13044e-08" y1="319.167" x2="641" y2="321.833" gradientUnits="userSpaceOnUse">
<stop stop-color="#73D8DE"/>
<stop offset="1" stop-color="#0BA9B4"/>
</linearGradient>
</defs>
</svg>
