<svg width="641" height="641" viewBox="0 0 641 641" fill="none" xmlns="http://www.w3.org/2000/svg">
<rect width="641" height="641" fill="url(#paint0_linear_1_16)"/>
<rect x="73.5" y="154.5" width="497" height="308" stroke="black" stroke-width="7"/>
<rect x="73.5" y="154.5" width="497" height="47" stroke="black" stroke-width="7"/>
<path d="M537.721 164.818L543.994 175.523L550.266 164.818H554.903L546.448 177.909L554.903 191H550.266L543.994 180.841L537.721 191H533.085L541.403 177.909L533.085 164.818H537.721Z" fill="black"/>
<circle cx="107" cy="179" r="10" fill="black"/>
<circle cx="143" cy="179" r="10" fill="black"/>
<line x1="237.95" y1="259.95" x2="183.95" y2="313.95" stroke="black" stroke-width="14"/>
<line y1="-7" x2="76.3675" y2="-7" transform="matrix(0.707107 0.707107 0.707107 -0.707107 179 309)" stroke="black" stroke-width="14"/>
<line y1="-7" x2="76.3675" y2="-7" transform="matrix(0.707107 0.707107 0.707107 -0.707107 421 262)" stroke="black" stroke-width="14"/>
<line x1="479.95" y1="320.95" x2="425.95" y2="374.95" stroke="black" stroke-width="14"/>
<line x1="353.1" y1="261.434" x2="286.1" y2="380.434" stroke="black" stroke-width="14"/>
<defs>
<linearGradient id="paint0_linear_1_16" x1="4.13044e-08" y1="319.167" x2="641" y2="321.833" gradientUnits="userSpaceOnUse">
<stop stop-color="#6BF893"/>
<stop offset="1" stop-color="#00FF49"/>
</linearGradient>
</defs>
</svg>
